<svg width="532" height="234" viewBox="0 0 532 234" fill="none" xmlns="http://www.w3.org/2000/svg">
<path d="M474.618 -136.298L467.968 -128.525C419.822 -72.251 449.688 15.0416 522.215 30.03L532.638 32.1841C600.809 46.2723 628.614 128.528 582.974 181.089L567.013 199.47C533.99 237.5 548.06 296.718 594.66 315.83V315.83" stroke="#202023" stroke-width="0.653416"/>
<path d="M468.185 -134.127L461.535 -126.355C413.389 -70.0804 443.254 17.2122 515.782 32.2007L526.205 34.3547C594.376 48.4429 622.181 130.698 576.541 183.26L560.58 201.641C527.557 239.671 541.627 298.889 588.227 318.001V318.001" stroke="#202023" stroke-width="0.653416"/>
<path d="M461.752 -131.956L455.102 -124.183C406.956 -67.909 436.821 19.3836 509.349 34.3721L519.772 36.5261C587.942 50.6143 615.748 132.87 570.108 185.431L554.146 203.812C521.124 241.842 535.194 301.06 581.794 320.172V320.172" stroke="#202023" stroke-width="0.653416"/>
<path d="M455.319 -129.786L448.669 -122.013C400.523 -65.7388 430.388 21.5538 502.916 36.5423L513.339 38.6963C581.51 52.7845 609.315 135.04 563.675 187.601L547.714 205.983C514.691 244.013 528.761 303.231 575.361 322.342V322.342" stroke="#202023" stroke-width="0.653416"/>
<path d="M448.886 -127.614L442.236 -119.841C394.09 -63.5672 423.955 23.7254 496.483 38.7139L506.906 40.8679C575.076 54.9561 602.882 137.212 557.242 189.773L541.28 208.154C508.258 246.184 522.328 305.402 568.928 324.514V324.514" stroke="#202023" stroke-width="0.653416"/>
<path d="M442.453 -125.444L435.803 -117.671C387.657 -61.3968 417.522 25.8958 490.049 40.8843L500.472 43.0383C568.643 57.1265 596.449 139.382 550.808 191.943L534.847 210.325C501.824 248.355 515.895 307.573 562.494 326.684V326.684" stroke="#202023" stroke-width="0.653416"/>
<path d="M436.02 -123.272L429.37 -115.5C381.224 -59.2256 411.089 28.067 483.616 43.0554L494.04 45.2095C562.21 59.2976 590.016 141.553 544.376 194.114L528.414 212.496C495.392 250.526 509.462 309.744 556.062 328.855V328.855" stroke="#202023" stroke-width="0.653416"/>
<path d="M429.587 -121.101L422.937 -113.329C374.791 -57.0547 404.656 30.2379 477.184 45.2263L487.607 47.3804C555.777 61.4685 583.583 143.724 537.943 196.285L521.982 214.667C488.959 252.697 503.029 311.915 549.629 331.026V331.026" stroke="#202023" stroke-width="0.653416"/>
<path d="M423.154 -118.931L416.504 -111.158C368.358 -54.8841 398.223 32.4085 470.75 47.397L481.173 49.551C549.344 63.6392 577.15 145.895 531.509 198.456L515.548 216.837C482.526 254.867 496.596 314.085 543.196 333.197V333.197" stroke="#202023" stroke-width="0.653416"/>
<path d="M416.721 -116.76L410.071 -108.987C361.925 -52.7132 391.79 34.5794 464.318 49.5679L474.741 51.7219C542.911 65.8101 570.717 148.066 525.077 200.627L509.115 219.008C476.093 257.038 490.163 316.256 536.763 335.368V335.368" stroke="#202023" stroke-width="0.653416"/>
<path d="M410.288 -114.589L403.638 -106.817C355.492 -50.5425 385.357 36.7501 457.884 51.7385L468.307 53.8926C536.478 67.9807 564.284 150.236 518.643 202.797L502.682 221.179C469.66 259.209 483.73 318.427 530.33 337.538V337.538" stroke="#202023" stroke-width="0.653416"/>
<path d="M403.855 -112.418L397.205 -104.646C349.059 -48.3714 378.924 38.9212 451.452 53.9097L461.875 56.0637C530.045 70.1519 557.851 152.407 512.211 204.969L496.249 223.35C463.227 261.38 477.297 320.598 523.897 339.709V339.709" stroke="#202023" stroke-width="0.653416"/>
<path d="M397.422 -110.247L390.772 -102.475C342.626 -46.2005 372.491 41.0921 445.019 56.0806L455.442 58.2346C523.612 72.3228 551.418 154.578 505.778 207.139L489.817 225.521C456.794 263.551 470.864 322.769 517.464 341.88V341.88" stroke="#202023" stroke-width="0.653416"/>
<path d="M390.989 -108.076L384.339 -100.304C336.193 -44.0293 366.058 43.2633 438.585 58.2517L449.008 60.4058C517.179 74.4939 544.985 156.75 499.344 209.311L483.383 227.692C450.36 265.722 464.431 324.94 511.031 344.052V344.052" stroke="#202023" stroke-width="0.653416"/>
<path d="M384.556 -105.905L377.906 -98.1327C329.76 -41.8584 359.625 45.4342 432.152 60.4226L442.575 62.5767C510.746 76.6648 538.552 158.92 492.911 211.482L476.95 229.863C443.927 267.893 457.998 327.111 504.598 346.222V346.222" stroke="#202023" stroke-width="0.653416"/>
<path d="M378.275 -103.786L371.625 -96.0134C323.479 -39.739 353.344 47.5535 425.871 62.542L436.295 64.6961C504.465 78.7842 532.271 161.04 486.631 213.601L470.669 231.982C437.647 270.012 451.717 329.23 498.317 348.342V348.342" stroke="#202023" stroke-width="0.653416"/>
<path d="M371.994 -101.666L365.344 -93.8937C317.198 -37.6194 347.063 49.6732 419.591 64.6616L430.014 66.8157C498.184 80.9038 525.99 163.159 480.35 215.721L464.389 234.102C431.366 272.132 445.436 331.35 492.036 350.461V350.461" stroke="#202023" stroke-width="0.653416"/>
<path d="M365.713 -99.547L359.064 -91.7746C310.917 -35.5003 340.783 51.7923 413.31 66.7808L423.733 68.9348C491.904 83.023 519.709 165.279 474.069 217.84L458.108 236.221C425.085 274.251 439.155 333.469 485.755 352.581V352.581" stroke="#202023" stroke-width="0.653416"/>
<path d="M359.433 -97.4274L352.783 -89.655C304.637 -33.3806 334.502 53.9119 407.029 68.9004L417.452 71.0545C485.623 85.1426 513.429 167.398 467.788 219.959L451.827 238.341C418.804 276.371 432.875 335.589 479.474 354.7V354.7" stroke="#202023" stroke-width="0.653416"/>
<path d="M353.152 -95.3078L346.502 -87.5353C298.356 -31.261 328.221 56.0316 400.748 71.02L411.171 73.1741C479.342 87.2622 507.148 169.518 461.507 222.079L445.546 240.46C412.524 278.49 426.594 337.708 473.194 356.82V356.82" stroke="#202023" stroke-width="0.653416"/>
<path d="M346.871 -93.1884L340.221 -85.416C292.075 -29.1416 321.94 58.151 394.467 73.1394L404.89 75.2935C473.061 89.3816 500.867 171.637 455.226 224.198L439.265 242.58C406.243 280.61 420.313 339.828 466.913 358.939V358.939" stroke="#202023" stroke-width="0.653416"/>
<path d="M340.591 -91.069L333.941 -83.2966C285.795 -27.0223 315.66 60.2703 388.187 75.2588L398.61 77.4129C466.781 91.501 494.587 173.757 448.946 226.318L432.985 244.699C399.962 282.729 414.033 341.947 460.632 361.059V361.059" stroke="#202023" stroke-width="0.653416"/>
<path d="M334.31 -88.9494L327.66 -81.1769C279.514 -24.9026 309.379 62.39 381.906 77.3784L392.329 79.5325C460.5 93.6206 488.306 175.876 442.665 228.437L426.704 246.819C393.681 284.849 407.752 344.067 454.351 363.178V363.178" stroke="#202023" stroke-width="0.653416"/>
<path d="M328.029 -86.8298L321.379 -79.0573C273.233 -22.783 303.098 64.5096 375.625 79.4981L386.048 81.6521C454.219 95.7403 482.025 177.996 436.384 230.557L420.423 248.938C387.401 286.968 401.471 346.186 448.071 365.298V365.298" stroke="#202023" stroke-width="0.653416"/>
<path d="M321.748 -84.7101L315.098 -76.9377C266.952 -20.6634 296.817 66.6292 369.344 81.6177L379.768 83.7717C447.938 97.8599 475.744 180.115 430.104 232.677L414.142 251.058C381.12 289.088 395.19 348.306 441.79 367.418V367.418" stroke="#202023" stroke-width="0.653416"/>
<path d="M315.467 -82.591L308.818 -74.8185C260.671 -18.5442 290.537 68.7484 363.064 83.7368L373.487 85.8909C441.658 99.979 469.463 182.235 423.823 234.796L407.862 253.177C374.839 291.207 388.909 350.425 435.509 369.537V369.537" stroke="#202023" stroke-width="0.653416"/>
<path d="M309.187 -80.4714L302.537 -72.6989C254.391 -16.4246 284.256 70.868 356.783 85.8565L367.206 88.0105C435.377 102.099 463.183 184.354 417.542 236.915L401.581 255.297C368.558 293.327 382.629 352.545 429.228 371.656V371.656" stroke="#202023" stroke-width="0.653416"/>
<path d="M302.906 -78.352L296.256 -70.5795C248.11 -14.3052 277.975 72.9874 350.502 87.9758L360.925 90.1299C429.096 104.218 456.902 186.474 411.261 239.035L395.3 257.416C362.277 295.446 376.348 354.664 422.948 373.776V373.776" stroke="#202023" stroke-width="0.653416"/>
<path d="M296.625 -76.2323L289.975 -68.4599C241.829 -12.1856 271.694 75.107 344.221 90.0955L354.644 92.2495C422.815 106.338 450.621 188.593 404.98 241.154L389.019 259.536C355.997 297.566 370.067 356.784 416.667 375.895V375.895" stroke="#202023" stroke-width="0.653416"/>
</svg>
